<svg width="113" height="32" viewBox="0 0 113 32" fill="none" xmlns="http://www.w3.org/2000/svg">
<path d="M5.56 20.72C4.24 20.72 3.172 20.48 2.356 20C1.564 19.52 0.988 18.872 0.628 18.056C0.268 17.216 0.0880001 16.28 0.0880001 15.248C0.0880001 13.976 0.328 12.656 0.808 11.288C1.288 9.896 1.948 8.564 2.788 7.292C3.628 6.02 4.588 4.88 5.668 3.872C6.772 2.84 7.948 2.024 9.196 1.424C10.468 0.823999 11.752 0.524 13.048 0.524C14.488 0.524 15.544 0.848 16.216 1.496C16.888 2.144 17.224 2.924 17.224 3.836C17.224 4.268 17.152 4.724 17.008 5.204C16.84 5.732 16.636 6.284 16.396 6.86C16.156 7.412 15.94 7.916 15.748 8.372C15.556 8.804 15.424 9.116 15.352 9.308C14.968 9.308 14.704 9.2 14.56 8.984C14.416 8.768 14.344 8.48 14.344 8.12C14.344 7.712 14.428 7.232 14.596 6.68C14.764 6.128 14.956 5.588 15.172 5.06C15.412 4.508 15.532 3.956 15.532 3.404C15.532 2.852 15.376 2.384 15.064 2C14.752 1.616 14.248 1.424 13.552 1.424C12.28 1.424 11.08 1.76 9.952 2.432C8.824 3.08 7.792 3.956 6.856 5.06C5.944 6.14 5.152 7.328 4.48 8.624C3.808 9.92 3.28 11.216 2.896 12.512C2.536 13.784 2.356 14.936 2.356 15.968C2.356 17.12 2.596 18.068 3.076 18.812C3.58 19.532 4.492 19.892 5.812 19.892C7.396 19.892 8.872 19.268 10.24 18.02C11.608 16.748 12.676 15.128 13.444 13.16C13.732 13.328 13.876 13.688 13.876 14.24C13.876 15.176 13.6 16.04 13.048 16.832C12.496 17.624 11.776 18.308 10.888 18.884C10.024 19.46 9.112 19.904 8.152 20.216C7.216 20.552 6.352 20.72 5.56 20.72ZM18.3243 20.252C17.4363 20.252 16.7643 19.964 16.3083 19.388C15.8763 18.812 15.6603 18.08 15.6603 17.192C15.6603 16.184 15.9243 15.08 16.4523 13.88C16.9323 12.8 17.5443 11.816 18.2883 10.928C19.0563 10.04 19.8843 9.332 20.7723 8.804C21.6603 8.252 22.5123 7.976 23.3283 7.976C24.3123 7.976 25.0323 8.276 25.4883 8.876C25.9443 9.476 26.1723 10.232 26.1723 11.144C26.1723 12.128 25.9203 13.184 25.4163 14.312C25.1523 14.888 24.7683 15.512 24.2643 16.184C23.7603 16.856 23.1843 17.504 22.5363 18.128C21.8883 18.752 21.1923 19.268 20.4482 19.676C19.7283 20.06 19.0203 20.252 18.3243 20.252ZM19.0083 19.532C19.5123 19.532 20.0163 19.364 20.5203 19.028C21.0243 18.668 21.5043 18.236 21.9603 17.732C22.4163 17.228 22.8123 16.724 23.1483 16.22C23.5083 15.692 23.7723 15.248 23.9403 14.888C24.3483 14.12 24.6483 13.388 24.8403 12.692C25.0323 11.972 25.1283 11.348 25.1283 10.82C25.1283 9.668 24.6963 9.092 23.8323 9.092C23.3043 9.092 22.7403 9.308 22.1403 9.74C21.5643 10.148 21.0003 10.7 20.4482 11.396C19.8963 12.092 19.4163 12.872 19.0083 13.736C18.1443 15.464 17.7123 16.868 17.7123 17.948C17.7123 18.812 17.9883 19.316 18.5403 19.46C18.6123 19.484 18.6843 19.508 18.7563 19.532C18.8283 19.532 18.9123 19.532 19.0083 19.532ZM26.5972 20.684C26.4292 20.684 26.3452 20.564 26.3452 20.324C26.3452 20.084 26.5252 19.724 26.8852 19.244C27.2452 18.764 27.7012 18.224 28.2532 17.624C28.8052 17 29.3932 16.376 30.0172 15.752C30.6412 15.104 31.2172 14.528 31.7452 14.024C32.2972 13.496 32.7292 13.076 33.0412 12.764C33.6172 12.212 34.1932 11.624 34.7692 11C35.3692 10.376 35.9212 9.812 36.4252 9.308C36.3052 9.308 36.0652 9.296 35.7052 9.272C35.3692 9.248 34.9972 9.236 34.5892 9.236C34.3972 9.236 34.2052 9.236 34.0132 9.236C33.8212 9.236 33.6412 9.26 33.4732 9.308C32.6092 9.452 31.8772 9.776 31.2772 10.28C30.6772 10.784 30.1252 11.384 29.6212 12.08C29.1412 12.752 28.6612 13.448 28.1812 14.168C27.7012 14.888 27.1492 15.56 26.5252 16.184C26.4292 16.28 26.3332 16.328 26.2372 16.328C26.1412 16.328 26.0692 16.28 26.0212 16.184C25.9732 16.064 25.9972 15.956 26.0932 15.86C26.7172 15.116 27.2812 14.276 27.7852 13.34C28.2892 12.404 28.7932 11.504 29.2972 10.64C29.8012 9.776 30.3652 9.08 30.9892 8.552C31.6372 8.024 32.4052 7.796 33.2932 7.868C33.9172 7.916 34.4932 7.964 35.0212 8.012C35.5492 8.036 36.0412 8.048 36.4972 8.048C37.0012 8.048 37.4692 8.036 37.9012 8.012C38.3332 7.964 38.7292 7.928 39.0892 7.904C38.1292 8.792 37.1572 9.716 36.1732 10.676C35.1892 11.612 34.3492 12.428 33.6532 13.124C32.9812 13.796 32.2372 14.528 31.4212 15.32C30.6052 16.112 29.9332 16.82 29.4052 17.444C29.4532 17.42 29.5132 17.408 29.5852 17.408C29.6572 17.408 29.7172 17.408 29.7652 17.408C30.3892 17.408 30.9172 17.564 31.3492 17.876C31.5412 17.972 31.8052 18.14 32.1412 18.38C32.5012 18.596 32.9452 18.704 33.4732 18.704C33.7612 18.704 34.0612 18.656 34.3732 18.56C34.7092 18.44 35.0692 18.236 35.4532 17.948C35.5972 17.852 35.8132 17.696 36.1012 17.48C36.3892 17.24 36.6892 16.988 37.0012 16.724C37.3132 16.436 37.5652 16.184 37.7572 15.968C38.0212 15.704 38.2612 15.452 38.4772 15.212C38.6932 14.972 38.8972 14.72 39.0892 14.456C39.1372 14.384 39.1972 14.348 39.2692 14.348C39.4132 14.348 39.4852 14.444 39.4852 14.636C39.4852 14.756 39.4252 14.876 39.3052 14.996C39.0652 15.308 38.8132 15.632 38.5492 15.968C38.2852 16.28 38.0092 16.592 37.7212 16.904C37.6252 17.024 37.3852 17.276 37.0012 17.66C36.6172 18.02 36.1732 18.416 35.6692 18.848C35.1892 19.256 34.7332 19.604 34.3012 19.892C33.9892 20.132 33.6892 20.288 33.4012 20.36C33.1132 20.456 32.8492 20.504 32.6092 20.504C32.0092 20.504 31.5052 20.336 31.0972 20C30.7132 19.688 30.3532 19.496 30.0172 19.424C29.9212 19.4 29.8132 19.388 29.6932 19.388C29.5972 19.364 29.4892 19.352 29.3692 19.352C28.4812 19.352 27.7492 19.676 27.1732 20.324C26.9332 20.564 26.7412 20.684 26.5972 20.684ZM35.4611 31.88C34.7891 31.88 34.2731 31.7 33.9131 31.34C33.5291 30.98 33.3371 30.464 33.3371 29.792C33.3371 28.832 33.6131 27.92 34.1651 27.056C34.7171 26.192 35.4251 25.388 36.2891 24.644C37.1291 23.924 38.0051 23.264 38.9171 22.664C39.8291 22.064 40.6571 21.548 41.4011 21.116C42.1451 20.684 42.6731 20.348 42.9851 20.108C43.5851 19.028 44.1491 17.924 44.6771 16.796C45.2051 15.644 45.6731 14.504 46.0811 13.376C45.4571 14.48 44.7731 15.536 44.0291 16.544C43.3091 17.552 42.5771 18.38 41.8331 19.028C41.1131 19.676 40.4171 20 39.7451 20C39.0491 20 38.5811 19.772 38.3411 19.316C38.1011 18.836 37.9811 18.32 37.9811 17.768C37.9811 17.336 38.0171 16.916 38.0891 16.508C38.1851 16.1 38.2691 15.8 38.3411 15.608C38.5571 14.984 38.8331 14.3 39.1691 13.556C39.5051 12.788 39.8411 12.044 40.1771 11.324C40.5371 10.58 40.8491 9.932 41.1131 9.38C41.3051 8.972 41.6651 8.624 42.1931 8.336C42.7211 8.024 43.1531 7.868 43.4891 7.868C43.8491 7.868 44.0291 8 44.0291 8.264C44.0291 8.456 43.9211 8.732 43.7051 9.092C43.5131 9.428 43.2251 9.956 42.8411 10.676C42.4571 11.396 42.0371 12.188 41.5811 13.052C41.1491 13.916 40.7531 14.744 40.3931 15.536C39.9611 16.472 39.7451 17.312 39.7451 18.056C39.7451 18.368 39.7931 18.62 39.8891 18.812C39.9851 19.004 40.1411 19.1 40.3571 19.1C40.5491 19.1 40.8011 18.992 41.1131 18.776C41.4251 18.56 41.7851 18.2 42.1931 17.696C42.4091 17.456 42.7331 17.048 43.1651 16.472C43.6211 15.896 44.1131 15.224 44.6411 14.456C45.1691 13.664 45.6731 12.836 46.1531 11.972C46.6331 11.084 47.0171 10.232 47.3051 9.416L47.5211 8.624C47.7131 8.456 47.9051 8.372 48.0971 8.372C48.3611 8.372 48.5891 8.492 48.7811 8.732C48.9731 8.972 49.0811 9.116 49.1051 9.164C48.7211 10.556 48.2411 12.044 47.6651 13.628C47.0891 15.212 46.3451 16.988 45.4331 18.956C46.3451 18.38 47.1131 17.828 47.7371 17.3C48.3611 16.748 48.8171 16.316 49.1051 16.004C49.3451 15.74 49.5731 15.476 49.7891 15.212C50.0291 14.948 50.2451 14.684 50.4371 14.42C50.5091 14.348 50.5691 14.312 50.6171 14.312C50.7611 14.312 50.8331 14.42 50.8331 14.636C50.8331 14.78 50.7851 14.9 50.6891 14.996C50.4251 15.308 50.1611 15.632 49.8971 15.968C49.6571 16.28 49.3931 16.604 49.1051 16.94C48.6251 17.468 47.9771 18.044 47.1611 18.668C46.3691 19.268 45.5891 19.784 44.8211 20.216C44.2211 21.632 43.5851 23.024 42.9131 24.392C42.2651 25.784 41.5691 27.044 40.8251 28.172C40.0811 29.3 39.2651 30.2 38.3771 30.872C37.4891 31.544 36.5171 31.88 35.4611 31.88ZM35.3171 31.124C35.9411 31.124 36.5651 30.872 37.1891 30.368C37.7891 29.864 38.3651 29.204 38.9171 28.388C39.4691 27.596 39.9851 26.744 40.4651 25.832C40.9451 24.92 41.3651 24.044 41.7251 23.204C42.1091 22.364 42.4211 21.668 42.6611 21.116C42.2531 21.38 41.7011 21.752 41.0051 22.232C40.3091 22.736 39.5651 23.3 38.7731 23.924C37.9811 24.548 37.2371 25.208 36.5411 25.904C35.8211 26.6 35.2451 27.284 34.8131 27.956C34.3571 28.652 34.1291 29.288 34.1291 29.864C34.1291 30.152 34.2131 30.428 34.3811 30.692C34.5491 30.98 34.8611 31.124 35.3171 31.124Z" fill="black"/>
<path d="M50.7732 20.432C50.4132 20.24 50.1372 19.976 49.9452 19.64C49.7772 19.304 49.6932 18.788 49.6932 18.092C49.6932 17.564 49.8132 17.048 50.0532 16.544C50.3172 16.016 50.6172 15.512 50.9532 15.032C51.2892 14.528 51.5892 14.06 51.8532 13.628C51.3252 13.484 50.9652 13.196 50.7732 12.764C50.5812 12.332 50.5092 12.032 50.5572 11.864C50.7732 11.936 51.0852 11.996 51.4932 12.044C51.9012 12.092 52.3332 12.128 52.7892 12.152C53.6292 10.784 54.4572 9.416 55.2732 8.048C56.0892 6.68 56.8092 5.348 57.4332 4.052C58.0572 2.756 58.5012 1.556 58.7652 0.451998C59.1732 0.451998 59.4492 0.583999 59.5932 0.848C59.7372 1.112 59.8092 1.412 59.8092 1.748C59.8332 2.084 59.8332 2.36 59.8092 2.576C59.7852 2.96 59.5932 3.548 59.2332 4.34C58.8972 5.132 58.4772 5.996 57.9732 6.932C57.4692 7.868 56.9652 8.756 56.4612 9.596C55.9812 10.436 55.5972 11.084 55.3092 11.54L54.9132 12.152C55.5852 12.128 56.3292 12.092 57.1452 12.044C57.9852 11.996 58.8012 11.948 59.5932 11.9C60.4092 11.828 61.1292 11.78 61.7532 11.756C62.5692 10.46 63.3612 9.152 64.1292 7.832C64.9212 6.488 65.6172 5.192 66.2172 3.944C66.8412 2.672 67.2732 1.508 67.5132 0.451998C67.9212 0.451998 68.1972 0.583999 68.3412 0.848C68.4852 1.112 68.5572 1.412 68.5572 1.748C68.5812 2.084 68.5812 2.36 68.5572 2.576C68.5572 2.96 68.3772 3.548 68.0172 4.34C67.6812 5.132 67.2612 5.996 66.7572 6.932C66.2532 7.868 65.7492 8.756 65.2452 9.596C64.7652 10.436 64.3692 11.084 64.0572 11.54L63.9132 11.756C64.4652 11.852 64.8252 12.056 64.9932 12.368C65.1612 12.68 65.2452 12.992 65.2452 13.304C65.1492 13.184 64.8972 13.1 64.4892 13.052C64.1052 12.98 63.6852 12.932 63.2292 12.908C62.9172 13.436 62.5812 14.012 62.2212 14.636C61.8852 15.236 61.5612 15.836 61.2492 16.436C60.7932 17.3 60.4092 18.104 60.0972 18.848C59.7852 19.568 59.6052 20.096 59.5572 20.432C59.1732 20.24 58.8852 19.976 58.6932 19.64C58.5252 19.304 58.4412 18.788 58.4412 18.092C58.4412 17.588 58.5732 17.06 58.8372 16.508C59.1252 15.932 59.4492 15.38 59.8092 14.852C60.1932 14.3 60.5172 13.808 60.7812 13.376C60.8772 13.208 60.9732 13.052 61.0692 12.908C59.6052 12.98 58.2612 13.076 57.0372 13.196C55.8372 13.316 54.8532 13.424 54.0852 13.52C53.8212 13.976 53.5572 14.456 53.2932 14.96C53.0292 15.464 52.7652 15.956 52.5012 16.436C52.0452 17.3 51.6612 18.104 51.3492 18.848C51.0372 19.568 50.8452 20.096 50.7732 20.432ZM67.3118 20.144C66.5198 20.144 65.9678 19.952 65.6558 19.568C65.3438 19.184 65.1878 18.716 65.1878 18.164C65.1878 17.444 65.3558 16.676 65.6918 15.86C66.0518 15.044 66.3638 14.408 66.6278 13.952C67.2758 12.92 68.0438 11.936 68.9318 11C69.8198 10.064 70.7558 9.308 71.7398 8.732C72.7478 8.132 73.7078 7.832 74.6198 7.832C75.0998 7.832 75.5678 7.916 76.0238 8.084C76.4798 8.228 76.9238 8.48 77.3558 8.84C77.5718 9.008 77.7158 9.176 77.7878 9.344C77.8838 9.488 77.9318 9.62 77.9318 9.74C77.9318 10.1 77.7758 10.28 77.4638 10.28C77.2478 10.28 77.0918 10.136 76.9958 9.848C76.6838 9.032 76.1798 8.624 75.4838 8.624C74.8838 8.624 74.1998 8.9 73.4318 9.452C72.6638 10.004 71.9078 10.664 71.1638 11.432C70.3478 12.296 69.6038 13.232 68.9318 14.24C68.2598 15.224 67.7558 16.124 67.4198 16.94C67.2518 17.3 67.1318 17.624 67.0598 17.912C67.0118 18.176 66.9878 18.404 66.9878 18.596C66.9878 19.028 67.1678 19.244 67.5278 19.244C67.9358 19.244 68.5358 18.944 69.3278 18.344C69.9038 17.888 70.4918 17.336 71.0918 16.688C71.7158 16.04 72.2918 15.404 72.8198 14.78C73.3478 14.132 73.7678 13.628 74.0798 13.268C74.1998 13.076 74.3078 12.896 74.4038 12.728C74.5238 12.56 74.6318 12.416 74.7278 12.296C74.8238 12.176 74.9798 12.08 75.1958 12.008C75.4358 11.936 75.6758 11.9 75.9158 11.9C76.2038 11.9 76.4438 11.948 76.6358 12.044C76.8278 12.14 76.8638 12.308 76.7438 12.548C76.7438 12.572 76.6118 12.824 76.3478 13.304C76.0838 13.76 75.7718 14.312 75.4118 14.96C75.0758 15.608 74.7758 16.232 74.5118 16.832C74.3678 17.168 74.2478 17.48 74.1518 17.768C74.0558 18.056 74.0078 18.296 74.0078 18.488C74.0078 18.8 74.1278 18.956 74.3678 18.956C74.5358 18.956 74.7878 18.86 75.1238 18.668C75.6518 18.404 76.1798 18.02 76.7078 17.516C77.2598 17.012 77.7638 16.496 78.2198 15.968C78.4838 15.704 78.7238 15.452 78.9398 15.212C79.1558 14.972 79.3598 14.72 79.5518 14.456C79.6238 14.384 79.6838 14.348 79.7318 14.348C79.8758 14.348 79.9478 14.456 79.9478 14.672C79.9478 14.792 79.8998 14.9 79.8038 14.996C79.5398 15.308 79.2758 15.632 79.0118 15.968C78.7478 16.28 78.4718 16.592 78.1838 16.904C77.9198 17.216 77.6438 17.528 77.3558 17.84C77.0918 18.128 76.8158 18.404 76.5278 18.668C75.4958 19.628 74.5478 20.108 73.6838 20.108C73.2998 20.108 72.9758 19.976 72.7118 19.712C72.4478 19.424 72.3158 18.98 72.3158 18.38C72.3158 17.924 72.3998 17.408 72.5678 16.832C72.6158 16.568 72.6878 16.304 72.7838 16.04C72.9038 15.776 73.0118 15.5 73.1078 15.212C72.6278 15.98 72.0758 16.748 71.4518 17.516C70.8518 18.26 70.2038 18.884 69.5078 19.388C68.8118 19.892 68.0798 20.144 67.3118 20.144ZM81.3594 20.432C80.6874 20.432 80.1954 20.216 79.8834 19.784C79.5714 19.352 79.4154 18.788 79.4154 18.092C79.4154 17.372 79.5594 16.568 79.8474 15.68C80.1594 14.768 80.5674 13.856 81.0714 12.944C81.5994 12.008 82.1874 11.168 82.8354 10.424C83.4834 9.656 84.1434 9.068 84.8154 8.66C84.1914 8.684 83.5434 8.828 82.8714 9.092C82.2234 9.332 81.6594 9.452 81.1794 9.452C80.7714 9.452 80.4354 9.296 80.1714 8.984C79.9074 8.648 79.7754 8.36 79.7754 8.12C79.7754 7.976 79.8474 7.904 79.9914 7.904C80.0874 7.904 80.2194 7.952 80.3874 8.048C80.6274 8.192 80.9274 8.288 81.2874 8.336C81.6474 8.384 82.0314 8.408 82.4394 8.408C82.9914 8.408 83.5194 8.384 84.0234 8.336C84.5514 8.264 84.9474 8.216 85.2114 8.192C85.2834 8.168 85.3674 8.156 85.4634 8.156C85.5594 8.156 85.6554 8.156 85.7514 8.156C86.0154 8.156 86.2434 8.18 86.4354 8.228C86.6514 8.276 86.7594 8.372 86.7594 8.516C86.7594 8.684 86.6274 8.864 86.3634 9.056C86.0274 9.296 85.5714 9.752 84.9954 10.424C84.4434 11.096 83.8674 11.876 83.2674 12.764C82.6914 13.652 82.1874 14.552 81.7554 15.464C81.7074 15.608 81.5994 15.896 81.4314 16.328C81.2634 16.736 81.1074 17.18 80.9634 17.66C80.8194 18.14 80.7474 18.572 80.7474 18.956C80.7474 19.532 80.9514 19.82 81.3594 19.82C82.0794 19.82 82.8114 19.544 83.5554 18.992C84.2994 18.44 85.0074 17.72 85.6794 16.832C86.3514 15.944 86.9514 14.984 87.4794 13.952C88.0074 12.92 88.4274 11.9 88.7394 10.892C89.0514 9.884 89.2074 8.996 89.2074 8.228C89.2074 7.82 89.1954 7.448 89.1714 7.112C89.1474 6.776 89.0874 6.452 88.9914 6.14C89.0634 6.116 89.1354 6.104 89.2074 6.104C89.2794 6.104 89.3394 6.104 89.3874 6.104C89.9394 6.104 90.3354 6.356 90.5754 6.86C90.8394 7.364 90.9714 7.928 90.9714 8.552C90.9714 9.776 90.5634 11.168 89.7474 12.728C88.9554 14.264 87.9114 15.776 86.6154 17.264C86.1834 17.72 85.6914 18.2 85.1394 18.704C84.6114 19.184 84.0354 19.592 83.4114 19.928C82.7874 20.264 82.1034 20.432 81.3594 20.432ZM92.8648 20.54C91.9768 20.54 91.2688 20.288 90.7408 19.784C90.2128 19.256 89.9488 18.524 89.9488 17.588C89.9488 16.868 90.0808 16.112 90.3448 15.32C90.6328 14.528 90.9088 13.904 91.1728 13.448C91.7248 12.44 92.3848 11.516 93.1528 10.676C93.9448 9.836 94.7488 9.164 95.5648 8.66C96.4048 8.132 97.1728 7.868 97.8688 7.868C98.5168 7.868 99.0688 8.048 99.5248 8.408C100.005 8.768 100.245 9.248 100.245 9.848C100.245 10.088 100.185 10.364 100.065 10.676C99.9448 10.988 99.7528 11.312 99.4888 11.648C98.5288 12.872 97.4608 13.832 96.2848 14.528C95.1328 15.2 93.8128 15.704 92.3248 16.04C92.2288 16.352 92.1448 16.664 92.0728 16.976C92.0008 17.264 91.9408 17.54 91.8928 17.804C91.8688 17.924 91.8448 18.044 91.8208 18.164C91.8208 18.26 91.8208 18.368 91.8208 18.488C91.8208 18.968 91.9288 19.316 92.1448 19.532C92.3848 19.724 92.6728 19.82 93.0088 19.82C93.5368 19.82 94.1008 19.688 94.7008 19.424C95.3008 19.136 95.8648 18.812 96.3928 18.452C96.9208 18.092 97.3168 17.804 97.5808 17.588C97.8448 17.348 98.0968 17.108 98.3368 16.868C98.6008 16.604 98.8888 16.316 99.2008 16.004C99.4408 15.74 99.6688 15.488 99.8848 15.248C100.101 14.984 100.305 14.72 100.497 14.456C100.569 14.384 100.629 14.348 100.677 14.348C100.821 14.348 100.893 14.456 100.893 14.672C100.893 14.792 100.845 14.9 100.749 14.996C100.317 15.524 99.8848 16.052 99.4528 16.58C99.0208 17.084 98.5768 17.576 98.1208 18.056C97.5928 18.608 96.8608 19.16 95.9248 19.712C95.0128 20.264 93.9928 20.54 92.8648 20.54ZM92.5408 15.572C93.1648 15.308 93.8848 14.924 94.7008 14.42C95.5408 13.916 96.3448 13.316 97.1128 12.62C97.9048 11.9 98.5528 11.132 99.0568 10.316C99.2248 10.052 99.3088 9.812 99.3088 9.596C99.3088 9.26 99.1168 9.092 98.7328 9.092C98.4688 9.092 98.1448 9.188 97.7608 9.38C96.5608 10.028 95.5288 10.904 94.6648 12.008C93.8008 13.112 93.0928 14.3 92.5408 15.572ZM98.0294 20.216C99.0614 18.296 99.9134 16.448 100.585 14.672C101.281 12.872 102.073 11.06 102.961 9.236C103.225 8.756 103.561 8.432 103.969 8.264C104.377 8.072 104.773 7.976 105.157 7.976C105.469 7.976 105.745 8.012 105.985 8.084C105.913 8.252 105.721 8.588 105.409 9.092C105.121 9.572 104.809 10.124 104.473 10.748C104.233 11.18 103.873 11.852 103.393 12.764C102.913 13.652 102.469 14.576 102.061 15.536C102.277 15.272 102.613 14.84 103.069 14.24C103.525 13.64 104.053 12.992 104.653 12.296C105.253 11.576 105.877 10.892 106.525 10.244C107.197 9.572 107.845 9.032 108.469 8.624C109.117 8.192 109.693 7.976 110.197 7.976C110.581 7.976 110.917 8.096 111.205 8.336C111.493 8.576 111.637 8.9 111.637 9.308C111.637 9.908 111.385 10.616 110.881 11.432C110.377 12.224 109.873 13.004 109.369 13.772C109.273 13.916 109.093 14.192 108.829 14.6C108.589 15.008 108.325 15.476 108.037 16.004C107.749 16.508 107.497 17 107.281 17.48C107.089 17.936 106.993 18.296 106.993 18.56C106.993 18.824 107.101 18.956 107.317 18.956C107.773 18.956 108.241 18.776 108.721 18.416C109.225 18.056 109.705 17.648 110.161 17.192C110.617 16.712 110.977 16.316 111.241 16.004C111.505 15.716 111.745 15.44 111.961 15.176C112.177 14.912 112.393 14.66 112.609 14.42C112.681 14.348 112.741 14.312 112.789 14.312C112.933 14.312 113.005 14.42 113.005 14.636C113.005 14.78 112.957 14.9 112.861 14.996C112.597 15.308 112.333 15.632 112.069 15.968C111.805 16.28 111.529 16.592 111.241 16.904C110.977 17.216 110.701 17.528 110.413 17.84C110.149 18.128 109.873 18.404 109.585 18.668C108.553 19.628 107.593 20.108 106.705 20.108C106.105 20.108 105.697 19.928 105.481 19.568C105.289 19.208 105.193 18.764 105.193 18.236C105.193 17.66 105.349 17.036 105.661 16.364C105.973 15.692 106.357 15.008 106.813 14.312C107.269 13.592 107.725 12.896 108.181 12.224C108.661 11.552 109.057 10.94 109.369 10.388C109.681 9.812 109.837 9.332 109.837 8.948C109.837 8.804 109.753 8.732 109.585 8.732C109.441 8.732 109.153 8.912 108.721 9.272C108.313 9.608 107.869 10.016 107.389 10.496C106.909 10.952 106.453 11.396 106.021 11.828C105.613 12.26 105.337 12.572 105.193 12.764C104.593 13.412 104.005 14.108 103.429 14.852C102.877 15.596 102.349 16.316 101.845 17.012C101.557 17.42 101.305 17.84 101.089 18.272C100.873 18.68 100.633 19.112 100.369 19.568C100.249 19.784 100.081 19.916 99.8654 19.964C99.6734 19.988 99.4094 20.012 99.0734 20.036C98.8334 20.036 98.6414 20.036 98.4974 20.036C98.3534 20.06 98.1974 20.12 98.0294 20.216Z" fill="#008080"/>
</svg>
