<svg width="201" height="57" viewBox="0 0 201 57" fill="none" xmlns="http://www.w3.org/2000/svg">
<path d="M9.84625 36.28C7.49958 36.28 5.60092 35.8533 4.15025 35C2.74225 34.1467 1.71825 32.9947 1.07825 31.544C0.43825 30.0507 0.11825 28.3867 0.11825 26.552C0.11825 24.2907 0.544917 21.944 1.39825 19.512C2.25158 17.0373 3.42492 14.6693 4.91825 12.408C6.41158 10.1467 8.11825 8.12 10.0383 6.328C12.0009 4.49333 14.0916 3.04266 16.3103 1.976C18.5716 0.909332 20.8543 0.375999 23.1583 0.375999C25.7183 0.375999 27.5956 0.952 28.7903 2.104C29.9849 3.256 30.5823 4.64267 30.5823 6.264C30.5823 7.032 30.4543 7.84267 30.1982 8.696C29.8996 9.63467 29.5369 10.616 29.1103 11.64C28.6836 12.6213 28.2996 13.5173 27.9583 14.328C27.6169 15.096 27.3823 15.6507 27.2543 15.992C26.5716 15.992 26.1023 15.8 25.8463 15.416C25.5903 15.032 25.4623 14.52 25.4623 13.88C25.4623 13.1547 25.6116 12.3013 25.9103 11.32C26.2089 10.3387 26.5503 9.37867 26.9343 8.44C27.3609 7.45867 27.5743 6.47733 27.5743 5.496C27.5743 4.51466 27.2969 3.68267 26.7423 3C26.1876 2.31733 25.2916 1.976 24.0543 1.976C21.7929 1.976 19.6596 2.57333 17.6543 3.768C15.6489 4.92 13.8143 6.47733 12.1503 8.44C10.5289 10.36 9.12092 12.472 7.92625 14.776C6.73158 17.08 5.79292 19.384 5.11025 21.688C4.47025 23.9493 4.15025 25.9973 4.15025 27.832C4.15025 29.88 4.57692 31.5653 5.43025 32.888C6.32625 34.168 7.94758 34.808 10.2943 34.808C13.1103 34.808 15.7343 33.6987 18.1663 31.48C20.5983 29.2187 22.4969 26.3387 23.8623 22.84C24.3743 23.1387 24.6303 23.7787 24.6303 24.76C24.6303 26.424 24.1396 27.96 23.1583 29.368C22.1769 30.776 20.8969 31.992 19.3183 33.016C17.7823 34.04 16.1609 34.8293 14.4543 35.384C12.7903 35.9813 11.2543 36.28 9.84625 36.28ZM32.5383 35.448C30.9596 35.448 29.7649 34.936 28.9543 33.912C28.1863 32.888 27.8023 31.5867 27.8023 30.008C27.8023 28.216 28.2716 26.2533 29.2103 24.12C30.0636 22.2 31.1516 20.4507 32.4743 18.872C33.8396 17.2933 35.3116 16.0347 36.8903 15.096C38.4689 14.1147 39.9836 13.624 41.4343 13.624C43.1836 13.624 44.4636 14.1573 45.2743 15.224C46.0849 16.2907 46.4903 17.6347 46.4903 19.256C46.4903 21.0053 46.0423 22.8827 45.1463 24.888C44.6769 25.912 43.9943 27.0213 43.0983 28.216C42.2023 29.4107 41.1783 30.5627 40.0263 31.672C38.8743 32.7813 37.6369 33.6987 36.3142 34.424C35.0343 35.1067 33.7756 35.448 32.5383 35.448ZM33.7543 34.168C34.6503 34.168 35.5463 33.8693 36.4423 33.272C37.3383 32.632 38.1916 31.864 39.0023 30.968C39.8129 30.072 40.5169 29.176 41.1143 28.28C41.7543 27.3413 42.2236 26.552 42.5223 25.912C43.2476 24.5467 43.7809 23.2453 44.1223 22.008C44.4636 20.728 44.6343 19.6187 44.6343 18.68C44.6343 16.632 43.8663 15.608 42.3303 15.608C41.3916 15.608 40.3889 15.992 39.3223 16.76C38.2983 17.4853 37.2956 18.4667 36.3142 19.704C35.3329 20.9413 34.4796 22.328 33.7543 23.864C32.2183 26.936 31.4503 29.432 31.4503 31.352C31.4503 32.888 31.9409 33.784 32.9223 34.04C33.0503 34.0827 33.1783 34.1253 33.3063 34.168C33.4343 34.168 33.5836 34.168 33.7543 34.168ZM47.2458 36.216C46.9471 36.216 46.7978 36.0027 46.7978 35.576C46.7978 35.1493 47.1178 34.5093 47.7578 33.656C48.3978 32.8027 49.2084 31.8427 50.1898 30.776C51.1711 29.6667 52.2164 28.5573 53.3258 27.448C54.4351 26.296 55.4591 25.272 56.3978 24.376C57.3791 23.4373 58.1471 22.6907 58.7018 22.136C59.7258 21.1547 60.7498 20.1093 61.7738 19C62.8404 17.8907 63.8218 16.888 64.7178 15.992C64.5044 15.992 64.0778 15.9707 63.4378 15.928C62.8404 15.8853 62.1791 15.864 61.4538 15.864C61.1124 15.864 60.7711 15.864 60.4298 15.864C60.0884 15.864 59.7684 15.9067 59.4698 15.992C57.9338 16.248 56.6324 16.824 55.5658 17.72C54.4991 18.616 53.5178 19.6827 52.6218 20.92C51.7684 22.1147 50.9151 23.352 50.0618 24.632C49.2084 25.912 48.2271 27.1067 47.1178 28.216C46.9471 28.3867 46.7764 28.472 46.6058 28.472C46.4351 28.472 46.3071 28.3867 46.2218 28.216C46.1364 28.0027 46.1791 27.8107 46.3498 27.64C47.4591 26.3173 48.4618 24.824 49.3578 23.16C50.2538 21.496 51.1498 19.896 52.0458 18.36C52.9418 16.824 53.9444 15.5867 55.0538 14.648C56.2058 13.7093 57.5711 13.304 59.1498 13.432C60.2591 13.5173 61.2831 13.6027 62.2218 13.688C63.1604 13.7307 64.0351 13.752 64.8458 13.752C65.7418 13.752 66.5738 13.7307 67.3418 13.688C68.1098 13.6027 68.8138 13.5387 69.4538 13.496C67.7471 15.0747 66.0191 16.7173 64.2698 18.424C62.5204 20.088 61.0271 21.5387 59.7898 22.776C58.5951 23.9707 57.2724 25.272 55.8218 26.68C54.3711 28.088 53.1764 29.3467 52.2378 30.456C52.3231 30.4133 52.4298 30.392 52.5578 30.392C52.6858 30.392 52.7924 30.392 52.8778 30.392C53.9871 30.392 54.9258 30.6693 55.6938 31.224C56.0351 31.3947 56.5044 31.6933 57.1018 32.12C57.7418 32.504 58.5311 32.696 59.4698 32.696C59.9818 32.696 60.5151 32.6107 61.0698 32.44C61.6671 32.2267 62.3071 31.864 62.9897 31.352C63.2458 31.1813 63.6298 30.904 64.1418 30.52C64.6538 30.0933 65.1871 29.6453 65.7418 29.176C66.2964 28.664 66.7444 28.216 67.0858 27.832C67.5551 27.3627 67.9818 26.9147 68.3658 26.488C68.7498 26.0613 69.1124 25.6133 69.4538 25.144C69.5391 25.016 69.6458 24.952 69.7738 24.952C70.0298 24.952 70.1578 25.1227 70.1578 25.464C70.1578 25.6773 70.0511 25.8907 69.8378 26.104C69.4111 26.6587 68.9631 27.2347 68.4938 27.832C68.0244 28.3867 67.5338 28.9413 67.0218 29.496C66.8511 29.7093 66.4244 30.1573 65.7418 30.84C65.0591 31.48 64.2698 32.184 63.3738 32.952C62.5204 33.6773 61.7098 34.296 60.9418 34.808C60.3871 35.2347 59.8538 35.512 59.3418 35.64C58.8298 35.8107 58.3604 35.896 57.9338 35.896C56.8671 35.896 55.9711 35.5973 55.2458 35C54.5631 34.4453 53.9231 34.104 53.3258 33.976C53.1551 33.9333 52.9631 33.912 52.7498 33.912C52.5791 33.8693 52.3871 33.848 52.1738 33.848C50.5951 33.848 49.2938 34.424 48.2698 35.576C47.8431 36.0027 47.5018 36.216 47.2458 36.216ZM63.0037 56.12C61.8091 56.12 60.8917 55.8 60.2517 55.16C59.5691 54.52 59.2277 53.6027 59.2277 52.408C59.2277 50.7013 59.7184 49.08 60.6997 47.544C61.6811 46.008 62.9397 44.5787 64.4757 43.256C65.9691 41.976 67.5264 40.8027 69.1478 39.736C70.7691 38.6693 72.2411 37.752 73.5638 36.984C74.8864 36.216 75.8251 35.6187 76.3798 35.192C77.4464 33.272 78.4491 31.3093 79.3878 29.304C80.3264 27.256 81.1584 25.2293 81.8838 23.224C80.7744 25.1867 79.5584 27.064 78.2358 28.856C76.9558 30.648 75.6544 32.12 74.3318 33.272C73.0518 34.424 71.8144 35 70.6198 35C69.3824 35 68.5504 34.5947 68.1238 33.784C67.6971 32.9307 67.4838 32.0133 67.4838 31.032C67.4838 30.264 67.5478 29.5173 67.6758 28.792C67.8464 28.0667 67.9958 27.5333 68.1238 27.192C68.5078 26.0827 68.9984 24.8667 69.5958 23.544C70.1931 22.1787 70.7904 20.856 71.3878 19.576C72.0278 18.2533 72.5824 17.1013 73.0518 16.12C73.3931 15.3947 74.0331 14.776 74.9718 14.264C75.9104 13.7093 76.6784 13.432 77.2758 13.432C77.9158 13.432 78.2358 13.6667 78.2358 14.136C78.2358 14.4773 78.0438 14.968 77.6598 15.608C77.3184 16.2053 76.8064 17.144 76.1238 18.424C75.4411 19.704 74.6944 21.112 73.8838 22.648C73.1158 24.184 72.4118 25.656 71.7718 27.064C71.0038 28.728 70.6198 30.2213 70.6198 31.544C70.6198 32.0987 70.7051 32.5467 70.8758 32.888C71.0464 33.2293 71.3238 33.4 71.7078 33.4C72.0491 33.4 72.4971 33.208 73.0518 32.824C73.6064 32.44 74.2464 31.8 74.9718 30.904C75.3558 30.4773 75.9318 29.752 76.6998 28.728C77.5104 27.704 78.3851 26.5093 79.3238 25.144C80.2624 23.736 81.1584 22.264 82.0118 20.728C82.8651 19.1493 83.5478 17.6347 84.0598 16.184L84.4438 14.776C84.7851 14.4773 85.1264 14.328 85.4678 14.328C85.9371 14.328 86.3424 14.5413 86.6838 14.968C87.0251 15.3947 87.2171 15.6507 87.2598 15.736C86.5771 18.2107 85.7238 20.856 84.6998 23.672C83.6758 26.488 82.3531 29.6453 80.7318 33.144C82.3531 32.12 83.7184 31.1387 84.8278 30.2C85.9371 29.2187 86.7478 28.4507 87.2598 27.896C87.6864 27.4267 88.0918 26.9573 88.4758 26.488C88.9024 26.0187 89.2864 25.5493 89.6278 25.08C89.7558 24.952 89.8624 24.888 89.9478 24.888C90.2038 24.888 90.3318 25.08 90.3318 25.464C90.3318 25.72 90.2464 25.9333 90.0758 26.104C89.6064 26.6587 89.1371 27.2347 88.6678 27.832C88.2411 28.3867 87.7718 28.9627 87.2598 29.56C86.4064 30.4987 85.2544 31.5227 83.8038 32.632C82.3958 33.6987 81.0091 34.616 79.6438 35.384C78.5771 37.9013 77.4464 40.376 76.2517 42.808C75.0998 45.2827 73.8624 47.5227 72.5398 49.528C71.2171 51.5333 69.7664 53.1333 68.1878 54.328C66.6091 55.5227 64.8811 56.12 63.0037 56.12ZM62.7477 54.776C63.8571 54.776 64.9664 54.328 66.0757 53.432C67.1424 52.536 68.1664 51.3627 69.1478 49.912C70.1291 48.504 71.0464 46.9893 71.8998 45.368C72.7531 43.7467 73.4998 42.1893 74.1398 40.696C74.8224 39.2027 75.3771 37.9653 75.8038 36.984C75.0784 37.4533 74.0971 38.1147 72.8598 38.968C71.6224 39.864 70.2998 40.8667 68.8918 41.976C67.4838 43.0853 66.1611 44.2587 64.9237 45.496C63.6437 46.7333 62.6197 47.9493 61.8517 49.144C61.0411 50.3813 60.6357 51.512 60.6357 52.536C60.6357 53.048 60.7851 53.5387 61.0837 54.008C61.3824 54.52 61.9371 54.776 62.7477 54.776Z" fill="white"/>
<path d="M90.2253 35.768C89.5853 35.4267 89.0946 34.9573 88.7533 34.36C88.4546 33.7627 88.3053 32.8453 88.3053 31.608C88.3053 30.6693 88.5186 29.752 88.9453 28.856C89.4146 27.9173 89.9479 27.0213 90.5453 26.168C91.1426 25.272 91.6759 24.44 92.1453 23.672C91.2066 23.416 90.5666 22.904 90.2253 22.136C89.8839 21.368 89.7559 20.8347 89.8413 20.536C90.2253 20.664 90.7799 20.7707 91.5052 20.856C92.2306 20.9413 92.9986 21.0053 93.8093 21.048C95.3026 18.616 96.7746 16.184 98.2253 13.752C99.6759 11.32 100.956 8.952 102.065 6.648C103.175 4.344 103.964 2.21067 104.433 0.247997C105.159 0.247997 105.649 0.482665 105.905 0.952C106.161 1.42133 106.289 1.95466 106.289 2.552C106.332 3.14933 106.332 3.64 106.289 4.024C106.247 4.70667 105.905 5.752 105.265 7.16C104.668 8.568 103.921 10.104 103.025 11.768C102.129 13.432 101.233 15.0107 100.337 16.504C99.4839 17.9973 98.8013 19.1493 98.2893 19.96L97.5853 21.048C98.7799 21.0053 100.103 20.9413 101.553 20.856C103.047 20.7707 104.497 20.6853 105.905 20.6C107.356 20.472 108.636 20.3867 109.745 20.344C111.196 18.04 112.604 15.7147 113.969 13.368C115.377 10.9787 116.615 8.67467 117.681 6.456C118.791 4.19467 119.559 2.12533 119.985 0.247997C120.711 0.247997 121.201 0.482665 121.457 0.952C121.713 1.42133 121.841 1.95466 121.841 2.552C121.884 3.14933 121.884 3.64 121.841 4.024C121.841 4.70667 121.521 5.752 120.881 7.16C120.284 8.568 119.537 10.104 118.641 11.768C117.745 13.432 116.849 15.0107 115.953 16.504C115.1 17.9973 114.396 19.1493 113.841 19.96L113.585 20.344C114.567 20.5147 115.207 20.8773 115.505 21.432C115.804 21.9867 115.953 22.5413 115.953 23.096C115.783 22.8827 115.335 22.7333 114.609 22.648C113.927 22.52 113.18 22.4347 112.369 22.392C111.815 23.3307 111.217 24.3547 110.577 25.464C109.98 26.5307 109.404 27.5973 108.849 28.664C108.039 30.2 107.356 31.6293 106.801 32.952C106.247 34.232 105.927 35.1707 105.841 35.768C105.159 35.4267 104.647 34.9573 104.305 34.36C104.007 33.7627 103.857 32.8453 103.857 31.608C103.857 30.712 104.092 29.7733 104.561 28.792C105.073 27.768 105.649 26.7867 106.289 25.848C106.972 24.8667 107.548 23.992 108.017 23.224C108.188 22.9253 108.359 22.648 108.529 22.392C105.927 22.52 103.537 22.6907 101.361 22.904C99.2279 23.1173 97.4786 23.3093 96.1133 23.48C95.6439 24.2907 95.1746 25.144 94.7053 26.04C94.2359 26.936 93.7666 27.8107 93.2973 28.664C92.4866 30.2 91.8039 31.6293 91.2493 32.952C90.6946 34.232 90.3533 35.1707 90.2253 35.768ZM119.627 35.256C118.219 35.256 117.238 34.9147 116.683 34.232C116.129 33.5493 115.851 32.7173 115.851 31.736C115.851 30.456 116.15 29.0907 116.747 27.64C117.387 26.1893 117.942 25.0587 118.411 24.248C119.563 22.4133 120.929 20.664 122.507 19C124.086 17.336 125.75 15.992 127.499 14.968C129.291 13.9013 130.998 13.368 132.619 13.368C133.473 13.368 134.305 13.5173 135.115 13.816C135.926 14.072 136.715 14.52 137.483 15.16C137.867 15.4587 138.123 15.7573 138.251 16.056C138.422 16.312 138.507 16.5467 138.507 16.76C138.507 17.4 138.23 17.72 137.675 17.72C137.291 17.72 137.014 17.464 136.843 16.952C136.289 15.5013 135.393 14.776 134.155 14.776C133.089 14.776 131.873 15.2667 130.507 16.248C129.142 17.2293 127.798 18.4027 126.475 19.768C125.025 21.304 123.702 22.968 122.507 24.76C121.313 26.5093 120.417 28.1093 119.819 29.56C119.521 30.2 119.307 30.776 119.179 31.288C119.094 31.7573 119.051 32.1627 119.051 32.504C119.051 33.272 119.371 33.656 120.011 33.656C120.737 33.656 121.803 33.1227 123.211 32.056C124.235 31.2453 125.281 30.264 126.347 29.112C127.457 27.96 128.481 26.8293 129.419 25.72C130.358 24.568 131.105 23.672 131.659 23.032C131.873 22.6907 132.065 22.3707 132.235 22.072C132.449 21.7733 132.641 21.5173 132.811 21.304C132.982 21.0907 133.259 20.92 133.643 20.792C134.07 20.664 134.497 20.6 134.923 20.6C135.435 20.6 135.862 20.6853 136.203 20.856C136.545 21.0267 136.609 21.3253 136.395 21.752C136.395 21.7947 136.161 22.2427 135.691 23.096C135.222 23.9067 134.667 24.888 134.027 26.04C133.43 27.192 132.897 28.3013 132.427 29.368C132.171 29.9653 131.958 30.52 131.787 31.032C131.617 31.544 131.531 31.9707 131.531 32.312C131.531 32.8667 131.745 33.144 132.171 33.144C132.47 33.144 132.918 32.9733 133.515 32.632C134.454 32.1627 135.393 31.48 136.331 30.584C137.313 29.688 138.209 28.7707 139.019 27.832C139.489 27.3627 139.915 26.9147 140.299 26.488C140.683 26.0613 141.046 25.6133 141.387 25.144C141.515 25.016 141.622 24.952 141.707 24.952C141.963 24.952 142.091 25.144 142.091 25.528C142.091 25.7413 142.006 25.9333 141.835 26.104C141.366 26.6587 140.897 27.2347 140.427 27.832C139.958 28.3867 139.467 28.9413 138.955 29.496C138.486 30.0507 137.995 30.6053 137.483 31.16C137.014 31.672 136.523 32.1627 136.011 32.632C134.177 34.3387 132.491 35.192 130.955 35.192C130.273 35.192 129.697 34.9573 129.227 34.488C128.758 33.976 128.523 33.1867 128.523 32.12C128.523 31.3093 128.673 30.392 128.971 29.368C129.057 28.8987 129.185 28.4293 129.355 27.96C129.569 27.4907 129.761 27 129.931 26.488C129.078 27.8533 128.097 29.2187 126.987 30.584C125.921 31.9067 124.769 33.016 123.531 33.912C122.294 34.808 120.993 35.256 119.627 35.256ZM144.601 35.768C143.406 35.768 142.531 35.384 141.977 34.616C141.422 33.848 141.145 32.8453 141.145 31.608C141.145 30.328 141.401 28.8987 141.913 27.32C142.467 25.6987 143.193 24.0773 144.089 22.456C145.027 20.792 146.073 19.2987 147.225 17.976C148.377 16.6107 149.55 15.5653 150.745 14.84C149.635 14.8827 148.483 15.1387 147.289 15.608C146.137 16.0347 145.134 16.248 144.281 16.248C143.555 16.248 142.958 15.9707 142.489 15.416C142.019 14.8187 141.785 14.3067 141.785 13.88C141.785 13.624 141.913 13.496 142.169 13.496C142.339 13.496 142.574 13.5813 142.873 13.752C143.299 14.008 143.833 14.1787 144.473 14.264C145.113 14.3493 145.795 14.392 146.521 14.392C147.502 14.392 148.441 14.3493 149.337 14.264C150.275 14.136 150.979 14.0507 151.449 14.008C151.577 13.9653 151.726 13.944 151.897 13.944C152.067 13.944 152.238 13.944 152.409 13.944C152.878 13.944 153.283 13.9867 153.625 14.072C154.009 14.1573 154.201 14.328 154.201 14.584C154.201 14.8827 153.966 15.2027 153.497 15.544C152.899 15.9707 152.089 16.7813 151.065 17.976C150.083 19.1707 149.059 20.5573 147.993 22.136C146.969 23.7147 146.073 25.3147 145.305 26.936C145.219 27.192 145.027 27.704 144.729 28.472C144.43 29.1973 144.153 29.9867 143.897 30.84C143.641 31.6933 143.513 32.4613 143.513 33.144C143.513 34.168 143.875 34.68 144.601 34.68C145.881 34.68 147.182 34.1893 148.505 33.208C149.827 32.2267 151.086 30.9467 152.281 29.368C153.475 27.7893 154.542 26.0827 155.481 24.248C156.419 22.4133 157.166 20.6 157.721 18.808C158.275 17.016 158.553 15.4373 158.553 14.072C158.553 13.3467 158.531 12.6853 158.489 12.088C158.446 11.4907 158.339 10.9147 158.169 10.36C158.297 10.3173 158.425 10.296 158.553 10.296C158.681 10.296 158.787 10.296 158.873 10.296C159.854 10.296 160.558 10.744 160.985 11.64C161.454 12.536 161.689 13.5387 161.689 14.648C161.689 16.824 160.963 19.2987 159.513 22.072C158.105 24.8027 156.249 27.4907 153.945 30.136C153.177 30.9467 152.302 31.8 151.321 32.696C150.382 33.5493 149.358 34.2747 148.249 34.872C147.139 35.4693 145.923 35.768 144.601 35.768ZM165.055 35.96C163.476 35.96 162.217 35.512 161.279 34.616C160.34 33.6773 159.871 32.376 159.871 30.712C159.871 29.432 160.105 28.088 160.575 26.68C161.087 25.272 161.577 24.1627 162.047 23.352C163.028 21.56 164.201 19.9173 165.567 18.424C166.975 16.9307 168.404 15.736 169.855 14.84C171.348 13.9013 172.713 13.432 173.951 13.432C175.103 13.432 176.084 13.752 176.895 14.392C177.748 15.032 178.175 15.8853 178.175 16.952C178.175 17.3787 178.068 17.8693 177.855 18.424C177.641 18.9787 177.3 19.5547 176.831 20.152C175.124 22.328 173.225 24.0347 171.135 25.272C169.087 26.4667 166.74 27.3627 164.095 27.96C163.924 28.5147 163.775 29.0693 163.647 29.624C163.519 30.136 163.412 30.6267 163.327 31.096C163.284 31.3093 163.241 31.5227 163.199 31.736C163.199 31.9067 163.199 32.0987 163.199 32.312C163.199 33.1653 163.391 33.784 163.775 34.168C164.201 34.5093 164.713 34.68 165.311 34.68C166.249 34.68 167.252 34.4453 168.319 33.976C169.385 33.464 170.388 32.888 171.327 32.248C172.265 31.608 172.969 31.096 173.439 30.712C173.908 30.2853 174.356 29.8587 174.783 29.432C175.252 28.9627 175.764 28.4507 176.319 27.896C176.745 27.4267 177.151 26.9787 177.535 26.552C177.919 26.0827 178.281 25.6133 178.623 25.144C178.751 25.016 178.857 24.952 178.943 24.952C179.199 24.952 179.327 25.144 179.327 25.528C179.327 25.7413 179.241 25.9333 179.071 26.104C178.303 27.0427 177.535 27.9813 176.767 28.92C175.999 29.816 175.209 30.6907 174.399 31.544C173.46 32.5253 172.159 33.5067 170.495 34.488C168.873 35.4693 167.06 35.96 165.055 35.96ZM164.479 27.128C165.588 26.6587 166.868 25.976 168.319 25.08C169.812 24.184 171.241 23.1173 172.607 21.88C174.015 20.6 175.167 19.2347 176.063 17.784C176.361 17.3147 176.511 16.888 176.511 16.504C176.511 15.9067 176.169 15.608 175.487 15.608C175.017 15.608 174.441 15.7787 173.759 16.12C171.625 17.272 169.791 18.8293 168.255 20.792C166.719 22.7547 165.46 24.8667 164.479 27.128ZM174.236 35.384C176.071 31.9707 177.586 28.6853 178.78 25.528C180.018 22.328 181.426 19.1067 183.004 15.864C183.474 15.0107 184.071 14.4347 184.796 14.136C185.522 13.7947 186.226 13.624 186.908 13.624C187.463 13.624 187.954 13.688 188.38 13.816C188.252 14.1147 187.911 14.712 187.356 15.608C186.844 16.4613 186.29 17.4427 185.692 18.552C185.266 19.32 184.626 20.5147 183.772 22.136C182.919 23.7147 182.13 25.3573 181.404 27.064C181.788 26.5947 182.386 25.8267 183.196 24.76C184.007 23.6933 184.946 22.5413 186.012 21.304C187.079 20.024 188.188 18.808 189.34 17.656C190.535 16.4613 191.687 15.5013 192.796 14.776C193.948 14.008 194.972 13.624 195.868 13.624C196.551 13.624 197.148 13.8373 197.66 14.264C198.172 14.6907 198.428 15.2667 198.428 15.992C198.428 17.0587 197.98 18.3173 197.084 19.768C196.188 21.176 195.292 22.5627 194.396 23.928C194.226 24.184 193.906 24.6747 193.436 25.4C193.01 26.1253 192.54 26.9573 192.028 27.896C191.516 28.792 191.068 29.6667 190.684 30.52C190.343 31.3307 190.172 31.9707 190.172 32.44C190.172 32.9093 190.364 33.144 190.748 33.144C191.559 33.144 192.391 32.824 193.244 32.184C194.14 31.544 194.994 30.8187 195.804 30.008C196.615 29.1547 197.255 28.4507 197.724 27.896C198.194 27.384 198.62 26.8933 199.004 26.424C199.388 25.9547 199.772 25.5067 200.156 25.08C200.284 24.952 200.391 24.888 200.476 24.888C200.732 24.888 200.86 25.08 200.86 25.464C200.86 25.72 200.775 25.9333 200.604 26.104C200.135 26.6587 199.666 27.2347 199.196 27.832C198.727 28.3867 198.236 28.9413 197.724 29.496C197.255 30.0507 196.764 30.6053 196.252 31.16C195.783 31.672 195.292 32.1627 194.78 32.632C192.946 34.3387 191.239 35.192 189.66 35.192C188.594 35.192 187.868 34.872 187.484 34.232C187.143 33.592 186.972 32.8027 186.972 31.864C186.972 30.84 187.25 29.7307 187.804 28.536C188.359 27.3413 189.042 26.1253 189.852 24.888C190.663 23.608 191.474 22.3707 192.284 21.176C193.138 19.9813 193.842 18.8933 194.396 17.912C194.951 16.888 195.228 16.0347 195.228 15.352C195.228 15.096 195.079 14.968 194.78 14.968C194.524 14.968 194.012 15.288 193.244 15.928C192.519 16.5253 191.73 17.2507 190.876 18.104C190.023 18.9147 189.212 19.704 188.444 20.472C187.719 21.24 187.228 21.7947 186.972 22.136C185.906 23.288 184.86 24.5253 183.836 25.848C182.855 27.1707 181.916 28.4507 181.02 29.688C180.508 30.4133 180.06 31.16 179.676 31.928C179.292 32.6533 178.866 33.4213 178.396 34.232C178.183 34.616 177.884 34.8507 177.5 34.936C177.159 34.9787 176.69 35.0213 176.092 35.064C175.666 35.064 175.324 35.064 175.068 35.064C174.812 35.1067 174.535 35.2133 174.236 35.384Z" fill="#29D2D2"/>
</svg>
